<?xml version="1.0" standalone="no"?>
<!DOCTYPE svg PUBLIC "-//W3C//DTD SVG 20010904//EN"
 "http://www.w3.org/TR/2001/REC-SVG-20010904/DTD/svg10.dtd">
<svg version="1.0" xmlns="http://www.w3.org/2000/svg"
 width="800.000000pt" height="808.000000pt" viewBox="0 0 800.000000 808.000000"
 preserveAspectRatio="xMidYMid meet">

<g transform="translate(0.000000,808.000000) scale(0.100000,-0.100000)"
fill="#000000" stroke="none">
<path d="M4655 7115 c-18 -17 -25 -35 -25 -63 0 -21 -2 -41 -5 -44 -3 -3 -52
7 -109 22 -222 60 -446 65 -683 16 -323 -68 -535 -199 -700 -435 -38 -53 -39
-54 -153 -91 -149 -49 -315 -120 -392 -166 -146 -89 -291 -233 -337 -335 -27
-58 -27 -140 -1 -198 33 -72 36 -70 -112 -68 l-133 2 -255 -134 c-140 -73
-269 -142 -286 -152 -54 -33 -59 -58 -59 -324 0 -228 1 -246 28 -355 15 -63
30 -127 33 -141 5 -20 -3 -36 -35 -73 -23 -26 -41 -54 -41 -62 0 -25 76 -166
128 -237 40 -56 51 -79 57 -125 24 -189 173 -553 358 -872 77 -132 383 -540
514 -685 155 -171 330 -335 423 -397 154 -102 297 -158 405 -158 57 0 75 -12
75 -50 0 -34 45 -103 109 -165 45 -44 56 -49 96 -50 25 0 45 -4 46 -10 1 -5
-43 -37 -97 -70 -54 -34 -104 -71 -111 -85 -15 -31 -7 -104 24 -202 15 -48 31
-82 43 -88 10 -5 55 -10 99 -10 l80 0 42 -62 c48 -71 53 -76 91 -84 15 -4 25
-10 22 -15 -20 -33 67 -109 125 -109 20 0 50 -9 66 -20 39 -26 60 -25 145 6
l72 26 16 -24 c74 -107 184 -140 300 -88 65 28 113 82 135 153 32 102 16 187
-47 246 -24 22 -24 25 -11 52 8 15 15 36 15 47 0 10 6 26 13 36 11 16 15 13
35 -23 13 -23 29 -41 37 -41 13 0 306 210 413 297 58 46 86 52 196 37 42 -6
49 -11 68 -48 41 -80 127 -334 147 -432 11 -54 25 -148 32 -209 14 -137 21
-158 65 -178 51 -25 42 -37 -29 -37 -36 0 -68 -5 -75 -12 -15 -15 -15 -128 -1
-183 6 -22 13 -49 16 -61 8 -33 -89 -160 -129 -168 -46 -9 -191 -7 -293 4 -92
10 -316 73 -414 116 -29 13 -62 24 -72 24 -24 0 -69 -93 -69 -142 0 -39 25
-129 48 -173 8 -16 14 -48 13 -71 -2 -35 2 -45 28 -67 35 -29 76 -39 261 -63
244 -31 505 -9 720 60 41 13 80 22 87 19 7 -3 16 -23 19 -44 11 -70 3 -67 274
-75 205 -6 263 -4 355 10 146 23 337 65 353 79 9 7 12 23 8 46 -20 139 -30
182 -52 230 l-24 54 -53 -7 c-28 -3 -107 -10 -174 -15 -66 -5 -126 -12 -132
-15 -12 -8 -42 23 -66 68 -18 33 -18 34 8 67 14 19 42 69 62 111 l37 78 -18
31 c-29 48 -86 90 -133 96 -34 5 -39 8 -29 20 6 8 26 20 45 28 18 8 33 21 33
31 0 9 27 100 59 203 33 102 81 256 106 341 63 208 159 455 290 743 l108 238
139 105 c76 58 144 116 150 127 21 39 14 399 -11 567 -43 285 -135 652 -175
696 -30 33 -442 216 -630 280 -88 30 -161 56 -163 58 -2 2 5 19 16 37 17 27
21 51 21 120 0 112 -7 143 -38 175 -22 22 -34 25 -77 23 -56 -3 -122 9 -131
23 -3 5 23 115 57 245 l63 236 -22 17 c-29 24 -28 34 8 78 40 50 60 112 60
184 0 55 -3 63 -33 93 -45 45 -88 50 -341 37 -116 -6 -213 -9 -217 -6 -4 2
-10 43 -14 92 -10 137 -24 224 -65 407 -62 276 -124 417 -266 605 -35 46 -64
89 -64 96 0 6 17 22 37 35 61 40 78 72 77 142 0 69 -16 106 -67 160 -49 53
-76 56 -151 17 -73 -37 -117 -35 -162 7 -52 48 -94 54 -129 18z m99 -43 c3 -5
-13 -28 -34 -53 l-39 -44 -1 46 c0 25 3 49 7 52 9 10 61 9 67 -1z m298 -22
c57 -44 74 -138 38 -198 -40 -65 -127 -76 -156 -20 -14 27 -14 34 0 69 9 22
16 63 16 93 0 45 3 55 23 64 33 16 52 14 79 -8z m-472 -122 c31 -10 71 -34 94
-56 41 -39 96 -142 96 -179 0 -12 4 -24 8 -27 9 -5 17 -243 17 -506 0 -161 -2
-190 -18 -213 -9 -15 -27 -27 -38 -27 -24 0 -75 25 -111 56 -15 12 -57 36 -93
53 -200 95 -475 306 -516 396 -39 85 -16 241 51 345 103 161 313 226 510 158z
m-1055 -121 c-82 -62 -138 -99 -131 -89 4 7 2 12 -4 12 -19 0 -2 17 61 59 34
23 71 41 83 41 19 -1 18 -3 -9 -23z m1367 -42 c79 -60 153 -140 216 -234 118
-177 238 -606 215 -769 -5 -34 -9 -42 -22 -37 -9 4 -57 10 -108 14 -57 5 -101
14 -116 24 -33 21 -41 73 -27 162 11 67 5 171 -10 180 -4 2 -5 -6 -3 -18 2
-12 0 -33 -6 -47 l-10 -25 0 27 c-1 15 -6 30 -13 34 -7 4 -8 3 -4 -4 4 -7 1
-12 -7 -12 -8 0 -18 -9 -23 -20 -6 -13 -10 24 -11 113 -2 120 -17 308 -29 364
-4 22 -4 22 21 -3 14 -14 26 -35 27 -47 0 -12 4 -2 7 23 5 35 0 59 -20 110
-15 38 -33 66 -42 68 -10 2 -17 -3 -17 -12 0 -15 -2 -15 -25 0 -15 10 -30 35
-40 69 -8 30 -18 62 -22 71 -9 23 7 16 69 -31z m-97 -27 c4 -20 2 -44 -3 -53
-7 -13 -9 -11 -9 12 0 15 -3 46 -7 68 -5 28 -4 35 3 25 6 -8 13 -31 16 -52z
m-1288 -273 c51 -13 123 -40 160 -60 98 -50 301 -194 332 -234 l26 -35 -28 19
c-37 24 -46 11 -16 -23 14 -15 33 -37 43 -50 l19 -22 -41 22 c-23 13 -46 33
-51 45 -6 12 -25 30 -43 39 -18 9 -61 39 -94 65 -55 43 -139 89 -165 89 -18 0
-234 84 -237 92 -7 17 -263 -2 -364 -27 -34 -9 -37 10 -8 48 17 21 36 28 112
41 51 9 104 18 118 20 46 8 144 -4 237 -29z m-1063 -417 c-45 -51 -50 -54 -57
-34 -8 22 29 64 61 69 15 2 29 5 31 6 2 0 -14 -18 -35 -41z m1726 -183 c160
-31 489 -154 543 -203 58 -52 88 -223 96 -542 3 -152 10 -255 16 -255 5 0 32
37 60 82 27 45 53 82 56 83 3 0 -5 -48 -18 -107 -15 -67 -20 -110 -14 -116 6
-6 23 4 47 26 l39 35 11 -78 c11 -78 41 -156 59 -154 17 2 23 26 45 179 28
188 36 221 66 267 26 40 88 78 127 78 31 0 96 -44 130 -88 66 -85 73 -234 15
-296 -21 -22 -26 -25 -19 -9 6 12 11 30 11 41 0 24 -37 59 -72 67 -43 11 -33
33 27 61 30 15 55 32 55 38 0 15 -21 36 -35 36 -26 0 -108 -66 -153 -123 -72
-90 -99 -151 -98 -217 1 -39 -4 -58 -15 -67 -13 -10 -17 -45 -22 -201 -6 -170
-37 -469 -56 -546 -7 -29 -9 -30 -61 -27 -30 1 -88 -5 -128 -13 -94 -20 -92
-20 -92 8 0 73 -154 75 -204 4 -9 -12 -16 -34 -16 -49 0 -26 1 -26 44 17 37
38 49 44 85 44 62 0 63 -21 3 -83 -27 -29 -53 -63 -57 -76 -17 -54 68 -82 124
-40 46 34 66 20 66 -45 0 -76 -42 -118 -137 -134 -41 -7 -51 -20 -27 -35 22
-14 91 9 149 49 l53 36 -7 -26 c-3 -14 -4 -26 -1 -26 10 0 54 103 49 112 -3 4
0 8 5 8 24 0 7 -41 -63 -150 -117 -183 -79 -163 -322 -173 -253 -11 -539 4
-664 32 -47 11 -194 53 -328 93 l-242 73 -93 155 c-51 85 -107 178 -125 205
-71 113 -141 545 -162 1010 -5 110 -12 213 -16 229 -6 26 -5 27 14 17 34 -18
46 -13 77 37 36 57 212 236 277 280 l48 33 -6 62 c-8 95 -14 127 -24 127 -9 0
-13 -12 -23 -65 -2 -12 -7 -3 -13 24 -12 57 -34 67 -34 15 0 -37 0 -37 -20
-19 -24 22 -27 20 -38 -31 l-9 -39 -13 28 -13 27 -30 -27 c-16 -16 -49 -56
-74 -90 -25 -35 -45 -63 -46 -63 -1 0 -3 15 -4 33 -1 17 -5 61 -8 97 -6 61 -4
68 27 119 56 93 165 140 505 215 87 20 194 40 238 45 108 13 331 6 435 -14z
m-2003 -155 c103 -14 130 -23 248 -82 113 -57 185 -104 185 -120 0 -6 34 -58
75 -115 67 -92 87 -137 52 -117 -7 4 -9 4 -5 -1 4 -4 3 -14 -3 -22 -13 -14
-33 -18 -25 -4 3 5 -7 11 -22 14 -36 7 -95 67 -134 137 -43 76 -75 118 -101
131 -18 9 -16 6 8 -20 20 -22 24 -30 12 -25 -13 5 -20 1 -24 -14 -6 -25 -36
-22 -127 14 -73 29 -82 30 -89 3 -4 -15 -12 -20 -28 -17 -16 2 -27 15 -38 48
-19 53 -29 70 -42 70 -29 0 9 -111 85 -251 54 -98 66 -142 50 -183 -3 -9 -17
-16 -30 -16 -41 0 -90 -26 -114 -60 -12 -17 -29 -64 -36 -103 -15 -75 -24 -93
-47 -84 -11 4 -6 29 28 129 l43 123 -38 85 c-21 46 -56 130 -77 187 -28 77
-42 103 -55 103 -10 0 -18 -8 -18 -17 0 -10 30 -96 67 -192 75 -197 75 -177
12 -341 -39 -102 -75 -143 -120 -138 -55 5 -58 27 -15 116 24 49 36 86 32 98
-17 55 -144 336 -152 337 -19 4 -14 -43 9 -90 13 -26 27 -65 30 -85 3 -21 18
-64 32 -97 l27 -60 -37 -114 c-34 -106 -39 -115 -71 -130 -19 -10 -40 -17 -47
-17 -7 0 -39 30 -70 66 -59 68 -70 102 -44 137 11 16 16 14 52 -23 21 -22 47
-40 57 -40 30 0 21 33 -18 71 -20 18 -56 64 -81 102 -61 93 -87 86 -43 -12 18
-40 19 -46 5 -61 -10 -11 -15 -37 -15 -74 0 -53 3 -61 43 -108 80 -97 93 -108
130 -108 38 0 91 36 102 70 5 17 8 18 40 4 47 -19 105 -17 139 5 20 13 39 17
66 14 20 -3 47 0 59 6 18 10 29 8 64 -11 73 -40 57 -95 -25 -85 -24 3 -55 8
-70 12 -30 8 -166 -44 -321 -122 -135 -67 -189 -87 -198 -71 -22 34 -10 46 42
44 34 -1 53 3 56 12 3 8 -9 12 -42 12 -66 0 -87 25 -116 141 -22 88 -24 112
-23 363 0 259 1 269 21 285 42 35 352 207 453 252 116 52 125 54 237 39z
m2707 -187 c36 -21 142 -96 235 -168 146 -112 167 -131 147 -136 -12 -3 -32
-12 -45 -18 -21 -12 -22 -11 -16 8 9 29 -3 61 -20 55 -34 -13 -70 -172 -111
-489 l-7 -60 -8 40 c-4 22 -8 90 -9 150 -1 120 0 120 -53 30 -15 -26 -30 -45
-33 -42 -3 2 2 45 10 93 29 163 18 184 -39 75 -51 -96 -65 -99 -65 -13 0 123
-34 427 -56 495 -7 23 -5 23 70 -20z m-2133 -33 c34 0 39 -3 39 -22 -1 -13 -6
-36 -13 -52 l-13 -29 -42 50 c-45 54 -51 69 -26 59 9 -3 33 -6 55 -6z m-238
-87 c14 -35 24 -63 21 -63 -5 0 -37 72 -49 110 -13 43 2 18 28 -47z m-169 7
c34 -12 69 -19 85 -15 25 5 29 1 55 -56 15 -33 50 -84 76 -111 48 -50 50 -51
99 -46 28 3 51 5 51 4 0 -1 -9 -25 -20 -54 -28 -73 -11 -95 38 -49 21 18 24
19 19 4 -22 -60 -49 -187 -44 -201 4 -10 16 -20 27 -23 18 -5 20 -14 20 -77 0
-63 11 -109 23 -96 3 3 14 23 26 45 18 35 21 37 21 15 0 -40 16 -57 39 -43 18
12 19 7 25 -115 8 -149 34 -469 43 -515 4 -21 2 -29 -4 -22 -6 6 -64 71 -130
145 -198 222 -404 412 -549 507 -18 11 -17 14 14 43 18 16 41 30 52 30 71 0
125 63 137 160 9 78 -2 111 -61 176 -31 34 -68 90 -85 129 -18 38 -45 90 -61
116 -36 55 -36 57 -7 69 24 10 27 10 111 -20z m3291 -94 c33 -4 71 -10 85 -13
22 -6 23 -7 5 -14 -23 -8 -16 -11 55 -27 l45 -10 -45 -1 c-104 -2 -267 36
-301 70 -31 31 -13 39 44 20 28 -10 79 -21 112 -25z m-2826 -227 c-24 -71 -50
-131 -56 -126 -3 3 31 107 56 171 21 54 21 20 0 -45z m2858 -17 c47 4 51 3 33
-9 -11 -8 -18 -19 -15 -24 12 -18 51 -8 88 22 21 17 40 29 43 26 3 -2 -35 -37
-83 -76 -73 -59 -90 -68 -99 -56 -6 8 -16 15 -22 15 -20 0 -73 52 -92 91 -11
21 -20 40 -20 42 0 2 26 -5 58 -16 38 -13 74 -18 109 -15z m-3330 -6 c52 -26
66 -51 59 -98 -19 -118 -36 -138 -117 -138 -115 0 -191 99 -145 188 16 30 54
67 76 74 20 6 94 -8 127 -26z m486 -159 c-39 -114 -56 -117 -28 -6 40 167 58
208 63 150 2 -21 -11 -77 -35 -144z m57 -65 c0 -35 -14 -72 -23 -62 -3 3 -2
29 0 57 6 59 23 62 23 5z m2763 -49 c-5 -12 -3 -14 8 -9 8 4 1 -4 -16 -19 -26
-22 -170 -115 -179 -115 -1 0 -3 7 -3 16 0 10 40 43 96 80 53 35 97 63 98 64
1 0 -1 -7 -4 -17z m-3524 -94 c77 -29 112 -49 106 -59 -3 -5 0 -12 6 -16 8 -4
9 -3 5 4 -4 7 -3 12 2 12 53 0 519 -461 639 -634 32 -45 105 -147 164 -228
123 -169 211 -317 303 -508 78 -163 192 -451 211 -535 16 -69 41 -255 50 -365
l6 -75 -74 -62 -74 -62 -6 77 c-15 189 -79 398 -108 351 -3 -5 -18 23 -34 63
-39 101 -109 251 -144 307 -57 93 -161 290 -161 306 0 18 -141 245 -239 385
-36 52 -79 115 -96 140 -34 51 -186 213 -454 484 -102 104 -180 186 -173 182
19 -11 14 -1 -10 20 -19 15 -20 16 -9 2 7 -10 9 -18 3 -18 -13 0 -33 25 -26
32 3 3 0 9 -7 14 -8 5 -10 3 -4 -6 5 -8 3 -11 -6 -8 -8 3 -14 10 -14 16 0 5
-4 14 -9 19 -6 5 -6 2 -1 -6 6 -11 4 -13 -11 -6 -61 25 -93 34 -126 35 -20 0
-39 4 -43 9 -7 12 32 34 45 26 6 -4 9 -1 8 6 -2 6 3 14 11 17 9 3 11 0 6 -9
-5 -8 -4 -11 1 -6 5 5 9 13 9 18 0 15 148 99 175 99 14 0 49 -9 79 -21z m3821
-109 c24 -24 33 -25 65 -4 29 19 60 11 80 -19 8 -13 17 -63 21 -120 7 -98 7
-98 -21 -127 -16 -17 -34 -30 -41 -30 -7 0 -15 -9 -19 -19 -8 -26 -36 -34 -70
-21 -24 9 -32 7 -51 -11 -21 -19 -36 -22 -123 -24 -75 -1 -102 2 -105 12 -7
17 -70 17 -96 1 -47 -30 -74 65 -34 119 12 16 34 35 50 43 87 45 132 82 138
113 4 17 23 49 43 69 34 35 42 38 90 38 40 0 58 -5 73 -20z m-4125 -290 c-3
-5 -11 -10 -16 -10 -6 0 -7 5 -4 10 3 6 11 10 16 10 6 0 7 -4 4 -10z m4193
-84 c43 7 108 -10 197 -51 28 -12 84 -32 125 -45 141 -42 357 -155 446 -233
68 -60 124 -186 163 -367 48 -224 62 -331 68 -516 10 -309 -12 -341 -422 -619
l-159 -108 110 109 c130 129 259 282 299 356 25 45 30 67 33 144 5 102 -13
191 -68 332 -39 100 -71 142 -110 142 -47 0 -69 -13 -190 -109 -191 -152 -395
-264 -449 -245 -55 20 -46 114 25 263 64 133 75 168 75 228 0 71 -6 78 -45 48
-18 -14 -36 -25 -39 -25 -3 0 12 42 33 93 46 111 56 162 41 210 -22 66 -43 56
-100 -45 -18 -32 -36 -60 -40 -63 -5 -2 -11 20 -14 49 -14 135 -118 228 -270
243 -58 5 -69 3 -113 -22 -27 -16 -57 -35 -67 -44 -17 -14 -20 -14 -31 1 -12
16 -16 15 -54 -18 -32 -27 -42 -32 -42 -19 0 15 -3 15 -15 5 -25 -20 -26 -7
-4 38 28 56 154 184 209 212 39 20 62 24 161 25 100 1 121 4 150 23 22 14 37
18 45 11 7 -5 30 -7 52 -3z m-3952 -122 c27 -26 38 -38 24 -28 l-24 19 17 -25
c9 -14 40 -65 69 -115 65 -112 140 -229 148 -233 4 -1 16 -9 26 -18 39 -30
-103 42 -161 82 -106 74 -123 103 -160 269 -8 39 -18 80 -20 93 -5 20 -3 22
13 13 11 -6 41 -31 68 -57z m-233 -153 c14 -35 24 -68 23 -75 -2 -6 -1 -8 1
-3 3 4 9 5 14 1 5 -3 9 30 10 78 1 63 3 75 9 50 14 -60 27 -57 38 9 l8 44 18
-70 c128 -484 576 -1111 1001 -1399 39 -27 66 -46 60 -44 -5 2 -32 14 -58 26
-27 12 -58 22 -70 22 -18 0 -11 -11 38 -61 l60 -61 -39 16 c-22 9 -46 21 -53
28 -7 6 -16 9 -19 6 -2 -3 28 -36 67 -72 l73 -67 -80 42 c-113 60 -342 229
-454 334 -52 49 -87 80 -77 68 11 -12 16 -26 13 -32 -4 -5 -1 -13 5 -17 8 -5
8 -8 0 -13 -7 -5 24 -47 81 -112 51 -57 85 -98 75 -90 -29 23 -218 238 -280
319 -73 95 -268 389 -329 497 -55 96 -178 342 -177 352 0 5 27 -45 60 -110
l60 -118 33 6 c32 7 33 5 70 -64 20 -39 39 -71 41 -71 5 0 -131 280 -143 295
-10 12 -96 278 -117 360 -17 66 -19 95 -8 122 5 11 10 -9 14 -57 4 -45 17
-101 32 -139z m3961 -22 c15 -11 36 -39 47 -61 18 -36 19 -46 9 -83 -12 -42
-13 -42 -41 -32 -24 10 -32 8 -54 -13 -24 -22 -26 -22 -44 -6 -18 17 -21 16
-69 -8 l-51 -26 -3 22 c-3 19 -26 38 -63 51 -17 6 13 55 43 71 16 8 32 26 36
40 15 59 135 88 190 45z m-4024 -144 c0 -5 -5 -3 -10 5 -5 8 -10 20 -10 25 0
6 5 3 10 -5 5 -8 10 -19 10 -25z m523 -169 c40 -30 98 -68 130 -86 59 -33 80
-53 27 -25 l-31 16 33 -58 c17 -32 35 -60 39 -63 3 -3 14 -21 24 -40 10 -19
21 -37 25 -40 4 -3 13 -17 21 -32 25 -50 113 -193 126 -206 7 -7 13 -19 13
-26 0 -7 9 -22 20 -34 12 -12 18 -22 15 -22 -2 0 15 -30 38 -67 24 -38 47 -75
51 -83 8 -17 21 -39 59 -97 15 -24 27 -46 27 -51 0 -5 36 -35 80 -66 44 -32
80 -60 80 -63 0 -7 -158 105 -230 163 -130 106 -370 381 -485 559 -143 220
-265 444 -265 487 0 6 30 -17 66 -51 36 -34 98 -86 137 -115z m2815 145 c45
-23 62 -42 93 -101 20 -39 24 -60 24 -150 0 -58 -8 -154 -17 -215 -10 -60 -20
-136 -23 -167 -6 -56 -7 -57 -31 -48 -14 6 -39 10 -55 10 l-30 0 6 53 c3 28 8
70 11 92 8 54 20 324 15 319 -3 -3 -11 19 -18 48 -8 29 -27 70 -44 91 -34 41
-29 49 10 15 l26 -23 -24 28 c-14 15 -30 26 -35 24 -6 -3 -20 0 -31 6 -11 6
-40 16 -65 23 -44 12 -43 12 53 13 77 1 105 -3 135 -18z m-251 3 c-3 -3 -12
-4 -19 -1 -8 3 -5 6 6 6 11 1 17 -2 13 -5z m1009 -309 c-3 -88 -8 -189 -11
-225 -2 -38 4 -13 15 59 22 141 28 163 29 106 3 -122 -45 -409 -114 -686 -50
-202 -77 -273 -140 -374 -54 -88 -103 -138 -261 -273 -159 -136 -227 -186
-298 -222 -75 -38 -118 -40 -134 -4 -7 14 -28 32 -48 40 -21 9 -43 22 -51 30
-40 40 -110 -4 -124 -80 -8 -44 1 -153 17 -202 14 -45 -37 35 -68 105 -17 41
-34 69 -36 62 -8 -25 -31 -9 -37 27 -15 88 -56 245 -79 301 -28 69 -29 67 55
96 47 17 165 92 231 147 57 47 73 43 118 -31 42 -68 79 -83 173 -70 78 10 242
57 297 84 97 49 187 182 211 310 13 73 6 136 -26 222 -25 65 -25 65 -6 107 10
22 44 75 75 116 68 90 88 147 122 360 34 213 42 248 62 252 26 5 35 -73 28
-257z m-221 -20 c29 -28 31 -42 8 -67 -19 -21 -36 -23 -66 -6 -12 7 -31 13
-42 14 -90 4 -88 3 -75 19 7 8 18 15 25 15 7 0 20 11 29 25 23 35 87 35 121 0z
m1086 -247 c31 -67 34 -81 34 -168 0 -73 -4 -103 -19 -130 -47 -89 -118 -133
-216 -133 -36 -1 -76 5 -90 12 -26 14 -100 81 -100 91 0 3 12 11 28 18 31 16
94 88 224 259 51 68 96 123 99 123 4 0 22 -33 40 -72z m-1221 -23 c36 -18 48
-66 26 -99 -13 -21 -23 -24 -88 -25 -57 -1 -80 3 -105 19 -36 22 -39 30 -22
63 17 31 28 37 74 37 22 0 47 5 55 10 20 13 26 12 60 -5z m-130 -236 c51 -27
95 -59 114 -82 27 -34 31 -47 31 -99 0 -54 -3 -62 -32 -88 -19 -17 -53 -33
-86 -40 -103 -23 -242 31 -327 127 -22 25 -45 61 -52 79 -7 19 -16 34 -21 34
-14 0 1 61 20 82 9 10 30 18 47 19 17 1 42 5 56 10 14 4 57 7 96 5 61 -2 82
-9 154 -47z m-580 -9 c0 -27 -26 -90 -37 -90 -33 0 -44 62 -16 92 22 25 53 24
53 -2z m-845 -75 c85 -14 161 -28 168 -31 8 -3 85 -86 172 -185 86 -99 186
-203 221 -230 35 -28 64 -54 63 -57 0 -4 -37 -25 -82 -48 -78 -39 -82 -42 -83
-75 0 -19 -5 -33 -11 -32 -32 6 -276 28 -313 28 -39 0 -53 -7 -109 -53 -36
-28 -67 -52 -70 -52 -4 0 -14 17 -23 38 -17 36 -98 128 -145 164 -18 14 -23
28 -23 64 0 66 -34 223 -74 342 -25 73 -31 104 -23 107 7 2 48 13 92 24 44 10
81 19 83 20 2 1 73 -10 157 -24z m1433 -274 l63 -6 -40 -26 c-22 -14 -66 -34
-98 -44 -50 -16 -67 -17 -124 -7 -76 13 -116 29 -123 48 -4 10 1 11 20 4 14
-6 37 -10 52 -10 l27 1 -30 15 c-26 12 -27 14 -5 9 14 -3 52 -8 85 -11 53 -5
58 -4 43 9 -10 8 -18 17 -18 21 0 7 60 6 148 -3z m-1628 -333 c18 -29 50 -76
71 -105 58 -78 55 -89 -52 -178 -82 -69 -174 -125 -204 -125 -17 0 -109 99
-129 139 -10 18 -16 42 -14 54 2 13 45 52 118 108 63 48 129 103 145 123 17
20 31 36 32 36 1 0 16 -24 33 -52z m2600 -12 c0 -2 -8 -10 -17 -17 -16 -13
-17 -12 -4 4 13 16 21 21 21 13z m-2108 -87 c133 -33 153 -41 167 -67 5 -9 46
-147 90 -306 l81 -288 -51 -46 c-77 -69 -173 -147 -274 -222 -49 -37 -99 -77
-110 -89 -31 -35 -51 -43 -79 -30 l-25 12 25 36 c28 41 30 54 10 71 -12 9 -23
3 -59 -34 -36 -38 -50 -46 -79 -46 -39 0 -53 11 -63 50 -9 37 27 80 66 80 17
0 32 6 35 15 8 19 -65 105 -88 105 -23 0 -34 -26 -19 -44 9 -11 4 -22 -22 -50
-19 -20 -39 -36 -45 -36 -18 0 -69 48 -85 82 -20 41 -9 61 41 76 22 7 50 21
63 31 l23 18 -42 44 c-40 42 -42 43 -42 19 0 -39 -26 -68 -91 -101 -50 -25
-70 -29 -117 -27 l-56 3 -18 47 c-9 26 -20 68 -24 95 l-6 48 159 94 c228 136
248 149 269 172 10 12 39 35 64 52 71 47 130 108 130 134 0 31 -7 29 -59 -12
-24 -19 -50 -35 -58 -35 -14 0 -33 39 -33 70 0 25 134 110 172 110 16 0 84
-14 150 -31z m2275 -66 c-14 -32 -41 -112 -62 -178 -20 -66 -67 -217 -105
-335 -90 -281 -137 -442 -150 -510 -18 -93 -23 -100 -74 -100 -25 0 -57 -5
-71 -10 -26 -10 -26 -9 -20 22 4 18 23 63 42 99 l34 67 -2 153 c-2 145 -1 158
24 222 51 131 141 271 272 423 62 73 124 178 126 214 0 9 3 10 5 3 3 -6 -6
-37 -19 -70z m-1082 17 c-64 -71 -505 -425 -505 -406 0 23 32 58 83 91 88 57
323 235 382 289 53 48 70 59 40 26z m738 7 c3 -8 -29 -39 -81 -78 -47 -35 -91
-68 -97 -73 -8 -6 -36 11 -83 50 -40 32 -72 62 -72 67 0 11 -1 11 83 -36 l67
-39 48 39 c48 40 112 83 123 83 4 0 9 -6 12 -13z m-593 -186 c-6 -39 -14 -71
-17 -71 -6 0 7 131 14 143 13 21 14 -8 3 -72z m-690 -90 c23 -45 5 -108 -38
-133 -50 -29 -103 17 -88 77 16 63 101 101 126 56z m668 -148 c-3 -43 -3 -64
-1 -48 4 24 9 11 24 -60 11 -49 16 -98 13 -110 -4 -16 -3 -17 6 -5 9 12 10 8
5 -16 -5 -27 1 -85 21 -203 5 -30 4 -33 -10 -22 -17 14 -36 93 -36 150 0 21
-9 90 -20 152 -20 117 -24 177 -14 217 12 43 17 21 12 -55z m167 -671 l7 -42
-34 1 c-30 2 -30 2 -5 6 15 2 27 7 27 11 0 7 -48 188 -90 341 -11 41 -20 82
-19 90 1 20 104 -349 114 -407z m-1157 256 c20 -20 14 -67 -13 -94 -20 -20
-34 -25 -63 -22 -34 3 -37 6 -40 36 -4 43 20 79 55 85 16 2 33 5 39 6 5 0 15
-4 22 -11z m1085 -223 c3 -44 2 -73 -2 -65 -5 8 -11 62 -14 120 -4 65 -3 90 2
65 5 -22 11 -76 14 -120z m-19 -274 c23 -9 50 -98 32 -104 -14 -5 12 -37 30
-37 31 0 65 24 62 44 -3 22 -65 69 -79 60 -5 -3 -9 0 -9 5 0 16 9 14 57 -14
32 -19 43 -32 43 -50 0 -46 -71 -72 -103 -37 -23 25 -49 92 -43 109 3 8 2 12
-3 9 -5 -3 -11 1 -15 9 -6 16 -1 17 28 6z m553 -11 c24 -10 48 -30 54 -44 10
-22 7 -32 -21 -75 -23 -36 -39 -51 -54 -51 -31 0 -55 59 -54 133 1 66 7 68 75
37z m-1044 -369 c98 -12 187 -25 197 -31 10 -5 28 -10 40 -10 15 0 20 -5 18
-17 -2 -14 -18 -20 -63 -26 -78 -10 -132 -2 -170 27 -16 13 -52 26 -80 30 -75
11 -224 47 -229 55 -3 4 21 4 52 0 31 -4 137 -17 235 -28z m1322 -83 c0 -31
-3 -59 -5 -62 -3 -2 -18 -2 -33 1 -32 6 -31 23 1 39 40 20 37 25 -7 18 -36 -6
-46 -4 -57 11 -12 16 -24 17 -106 12 -91 -7 -92 -6 -63 10 19 11 66 19 130 23
150 11 140 14 140 -52z m-1400 -177 l40 -7 -30 -7 c-29 -7 -183 8 -193 18 -8
8 138 5 183 -4z m1275 -20 c0 -5 -14 -11 -31 -15 -50 -10 -269 -7 -269 3 0 11
55 17 198 19 56 1 102 -2 102 -7z"/>
<path d="M4966 6413 c-12 -12 -6 -71 9 -83 8 -7 15 -9 16 -4 2 15 17 -39 18
-63 1 -13 -5 -23 -13 -23 -16 0 -24 -34 -16 -75 3 -17 11 -30 20 -30 34 0 20
265 -15 278 -7 3 -16 3 -19 0z"/>
<path d="M4225 5666 c-119 -46 -220 -97 -273 -137 -51 -39 -54 -40 -72 -24
-18 16 -20 16 -38 -15 -17 -28 -21 -30 -29 -15 -9 15 -11 15 -25 1 -9 -8 -22
-38 -29 -66 -7 -27 -16 -50 -19 -50 -4 0 -13 11 -20 25 -20 37 -30 21 -30 -46
0 -71 18 -118 55 -147 53 -42 69 -33 229 113 161 148 192 167 293 191 38 8 74
22 81 31 15 20 16 75 1 126 -8 31 -14 37 -37 37 -15 -1 -54 -11 -87 -24z m83
-72 l-3 -47 -72 -23 c-93 -30 -122 -49 -268 -173 -167 -143 -192 -153 -214
-89 -14 39 -14 38 4 38 9 0 20 19 28 47 14 46 14 47 28 25 19 -31 38 -28 46 8
6 33 17 39 27 15 11 -30 36 -17 36 18 0 41 9 49 130 118 79 45 223 106 253
108 4 1 7 -20 5 -45z"/>
<path d="M3376 5462 c-7 -12 -26 -132 -26 -169 0 -38 24 -46 34 -10 13 48 19
174 8 181 -6 3 -13 3 -16 -2z"/>
<path d="M3575 5327 c-11 -26 10 -86 45 -135 43 -60 56 -52 19 13 -17 31 -37
75 -44 98 -10 33 -14 38 -20 24z"/>
<path d="M4107 5276 c-135 -50 -196 -148 -205 -326 -5 -117 17 -261 45 -292
13 -14 33 -18 98 -18 75 0 88 3 166 41 122 60 211 93 324 123 106 28 140 46
90 46 -29 0 -31 4 -53 78 -35 115 -78 213 -112 254 -47 57 -144 99 -239 104
-51 3 -89 0 -114 -10z m213 -58 c51 -16 87 -44 115 -92 30 -52 106 -269 97
-277 -4 -4 -58 -23 -121 -44 -92 -31 -115 -35 -122 -24 -5 8 -9 17 -9 22 0 14
-56 7 -93 -13 -28 -15 -42 -18 -56 -11 -29 16 -32 48 -7 79 13 15 28 36 34 48
10 19 7 22 -39 32 -64 15 -111 15 -144 0 -14 -6 -28 -8 -32 -4 -10 10 14 142
32 177 24 45 76 101 110 115 34 15 174 10 235 -8z m-295 -487 c3 -5 1 -13 -5
-16 -15 -9 -43 3 -35 15 8 13 32 13 40 1z"/>
<path d="M3460 5143 c0 -5 18 -51 40 -102 37 -84 69 -191 84 -280 5 -28 1 -37
-27 -63 -34 -33 -107 -82 -112 -76 -2 2 -11 57 -20 123 -27 202 -59 265 -160
311 -59 28 -86 29 -147 9 -125 -43 -158 -160 -123 -440 21 -165 26 -183 60
-190 14 -3 36 -7 49 -10 22 -4 23 -9 22 -72 -1 -87 34 -192 80 -243 19 -21 58
-48 87 -60 47 -21 63 -22 169 -17 l117 5 -23 -53 c-48 -107 -57 -200 -30 -318
24 -104 47 -151 106 -213 76 -81 75 -81 171 -38 45 20 85 41 88 47 4 5 3 25
-2 46 -13 55 -10 60 12 18 11 -21 24 -35 29 -32 5 3 21 -2 36 -11 24 -16 27
-16 35 -2 5 9 50 46 99 83 87 63 90 67 90 105 0 56 27 73 84 54 l42 -15 75 51
c42 27 81 61 87 74 7 17 17 23 29 20 12 -3 44 14 87 46 61 46 71 50 96 41 23
-8 32 -6 46 10 9 10 22 19 29 19 6 0 19 6 29 13 17 13 17 16 -9 68 -57 111
-116 162 -283 242 l-87 42 -152 0 c-102 0 -149 3 -143 10 19 24 22 86 6 130
-19 49 -81 111 -122 121 -43 11 -123 -4 -169 -31 -51 -30 -83 -70 -91 -117
l-6 -33 43 49 c49 56 90 76 153 76 62 0 93 -14 116 -52 48 -80 7 -143 -115
-177 -29 -8 -56 -8 -101 1 -89 16 -110 8 -140 -57 -49 -102 -142 -165 -247
-165 -168 0 -255 82 -274 260 l-6 57 107 51 c117 56 220 124 310 205 l60 53 0
65 c1 58 -4 74 -51 165 -69 136 -106 197 -121 202 -6 2 -12 0 -12 -5z m-164
-148 c55 -32 67 -66 94 -250 l22 -149 -28 -23 c-18 -14 -31 -18 -35 -12 -4 8
-12 8 -26 1 -12 -7 -40 -8 -69 -4 -43 6 -49 10 -52 34 -2 17 4 31 16 40 10 7
24 28 30 45 9 29 8 34 -8 43 -47 25 -126 5 -182 -48 -24 -22 -28 -23 -34 -9
-3 10 -4 66 -2 125 5 146 31 197 115 228 48 18 106 10 159 -21z m-191 -475
c17 -18 17 -20 1 -26 -20 -8 -52 19 -42 35 10 16 21 14 41 -9z m1341 -274 c60
-20 131 -51 157 -69 49 -33 137 -137 137 -163 0 -16 2 -17 -62 37 -27 22 -38
27 -38 16 0 -21 -31 -27 -53 -9 -16 14 -17 13 -11 -19 l6 -34 -17 25 c-36 51
-71 82 -117 106 -27 13 -48 22 -48 18 0 -3 19 -28 42 -55 36 -43 43 -60 53
-124 7 -41 9 -75 4 -75 -25 0 -67 26 -99 63 -21 23 -41 39 -45 36 -3 -4 8 -35
25 -69 29 -57 30 -63 14 -74 -11 -9 -15 -21 -11 -35 4 -15 -12 -4 -48 36 -55
61 -78 67 -50 14 9 -18 11 -31 5 -31 -6 0 -5 -11 4 -28 8 -16 11 -34 7 -40 -8
-13 -53 14 -140 86 -23 19 -41 28 -41 22 0 -6 -6 -18 -14 -26 -13 -12 -15 -12
-20 3 -4 10 -16 29 -27 43 l-20 25 6 -39 c4 -22 17 -61 30 -86 13 -25 26 -67
30 -93 6 -39 5 -47 -9 -47 -9 0 -16 -5 -16 -11 0 -5 -4 -8 -9 -5 -5 4 -12 -7
-16 -24 -6 -26 -9 -29 -27 -19 -16 8 -22 7 -34 -8 -7 -10 -14 -21 -14 -25 0
-5 -7 -8 -16 -8 -10 0 -35 40 -70 114 -30 63 -59 118 -64 121 -13 8 -13 -35 1
-89 6 -23 9 -58 7 -77 l-4 -34 -8 30 c-17 66 -27 71 -21 11 5 -51 4 -57 -9
-47 -8 7 -16 22 -18 34 -2 12 -9 21 -15 20 -35 -7 -83 112 -83 207 0 74 33
177 36 114 3 -36 36 -144 44 -139 4 2 13 52 19 110 7 58 17 108 22 111 5 3 9
-3 9 -13 1 -10 8 -29 16 -43 l15 -25 -5 27 c-3 14 -3 41 1 59 5 29 8 23 28
-57 12 -49 31 -111 42 -138 l20 -49 6 49 c3 28 -1 77 -9 114 -28 129 -29 119
1 85 15 -16 25 -23 22 -15 -2 8 -8 26 -12 40 -6 22 -4 21 24 -10 19 -23 30
-29 31 -20 0 9 -4 20 -9 25 -5 6 -16 28 -25 50 -15 37 -9 33 80 -59 63 -64 94
-90 89 -75 -6 22 -5 22 19 -6 14 -16 25 -25 26 -18 0 6 -5 15 -10 18 -11 7
-50 79 -50 91 0 4 12 -3 26 -17 40 -36 17 3 -36 63 l-42 48 34 -6 33 -5 -45
40 c-24 22 -42 43 -38 46 3 3 31 -7 62 -23 64 -34 72 -27 20 17 l-37 30 34 10
c66 20 206 6 325 -33z m-840 -379 c11 4 14 -10 14 -79 0 -47 5 -100 11 -117 8
-23 8 -36 1 -43 -7 -7 -18 5 -37 42 -24 48 -26 57 -19 133 4 45 9 77 11 70 2
-7 11 -9 19 -6z m103 -229 c6 -18 7 -28 2 -23 -10 12 -25 55 -18 55 3 0 10
-15 16 -32z"/>
<path d="M1945 5130 c-3 -5 1 -10 9 -10 9 0 16 5 16 10 0 6 -4 10 -9 10 -6 0
-13 -4 -16 -10z"/>
<path d="M2023 4703 c9 -2 23 -2 30 0 6 3 -1 5 -18 5 -16 0 -22 -2 -12 -5z"/>
<path d="M2110 4680 c8 -5 20 -10 25 -10 6 0 3 5 -5 10 -8 5 -19 10 -25 10 -5
0 -3 -5 5 -10z"/>
<path d="M1904 4644 c-18 -14 -18 -15 4 -4 12 6 22 13 22 15 0 8 -5 6 -26 -11z"/>
<path d="M1818 4573 c6 -2 18 -2 25 0 6 3 1 5 -13 5 -14 0 -19 -2 -12 -5z"/>
<path d="M2309 4563 c12 -24 31 -39 31 -25 0 5 -10 17 -21 28 -22 19 -22 19
-10 -3z"/>
<path d="M2080 4437 c27 -31 116 -83 92 -54 -8 9 -24 19 -35 23 -12 3 -35 18
-52 33 l-30 26 25 -28z"/>
<path d="M3561 2504 c0 -11 3 -14 6 -6 3 7 2 16 -1 19 -3 4 -6 -2 -5 -13z"/>
<path d="M3431 2434 c0 -11 3 -14 6 -6 3 7 2 16 -1 19 -3 4 -6 -2 -5 -13z"/>
<path d="M3572 2425 c0 -16 2 -22 5 -12 2 9 2 23 0 30 -3 6 -5 -1 -5 -18z"/>
<path d="M3441 2374 c0 -11 3 -14 6 -6 3 7 2 16 -1 19 -3 4 -6 -2 -5 -13z"/>
<path d="M3576 2303 c-6 -14 -5 -15 5 -6 7 7 10 15 7 18 -3 3 -9 -2 -12 -12z"/>
<path d="M3509 2244 l-34 -35 -6 28 c-6 26 -7 25 -8 -9 0 -21 0 -38 2 -38 2 0
23 20 47 45 24 25 42 45 39 45 -3 0 -21 -16 -40 -36z"/>
<path d="M5122 3415 c0 -16 2 -22 5 -12 2 9 2 23 0 30 -3 6 -5 -1 -5 -18z"/>
<path d="M5152 3420 c0 -14 2 -19 5 -12 2 6 2 18 0 25 -3 6 -5 1 -5 -13z"/>
<path d="M5161 3354 c0 -11 3 -14 6 -6 3 7 2 16 -1 19 -3 4 -6 -2 -5 -13z"/>
<path d="M5112 3340 c0 -14 2 -19 5 -12 2 6 2 18 0 25 -3 6 -5 1 -5 -13z"/>
<path d="M5101 3294 c0 -11 3 -14 6 -6 3 7 2 16 -1 19 -3 4 -6 -2 -5 -13z"/>
<path d="M5821 3124 c0 -11 3 -14 6 -6 3 7 2 16 -1 19 -3 4 -6 -2 -5 -13z"/>
<path d="M5098 2920 c-34 -20 -22 -66 29 -121 56 -60 121 -95 191 -105 46 -6
53 -4 76 19 14 15 26 37 26 51 0 36 -79 110 -143 134 -66 25 -156 36 -179 22z"/>
<path d="M3672 2124 c-40 -28 -21 -104 27 -104 21 0 51 30 51 52 0 16 -37 68
-49 68 -3 0 -17 -7 -29 -16z"/>
<path d="M6374 1874 c-95 -116 -144 -187 -190 -277 -69 -135 -76 -161 -74
-287 1 -63 3 -128 5 -145 1 -16 -4 -45 -12 -64 -10 -26 -10 -36 -2 -42 6 -4 9
-11 5 -17 -3 -6 1 -8 12 -5 13 3 24 25 36 71 22 83 102 287 126 321 17 24 65
169 144 429 18 61 33 112 32 112 -2 0 -38 -43 -82 -96z"/>
<path d="M6050 994 c-6 -16 -13 -35 -15 -43 -4 -9 0 -11 11 -7 8 3 37 6 64 6
42 0 48 3 52 24 4 21 1 25 -31 28 -20 3 -44 8 -53 12 -14 6 -20 1 -28 -20z"/>
<path d="M5551 1564 c0 -11 3 -14 6 -6 3 7 2 16 -1 19 -3 4 -6 -2 -5 -13z"/>
<path d="M6118 738 c7 -7 12 -39 12 -73 0 -56 11 -85 32 -85 5 0 21 20 37 45
36 57 31 81 -23 106 -49 22 -76 25 -58 7z m29 -85 c-3 -10 -5 -4 -5 12 0 17 2
24 5 18 2 -7 2 -21 0 -30z"/>
<path d="M6965 4270 c-4 -6 -20 -49 -36 -97 -52 -154 -37 -163 43 -25 57 97
57 97 36 115 -23 19 -34 21 -43 7z"/>
<path d="M7036 4144 c-47 -63 -86 -120 -86 -125 0 -18 20 -8 77 40 77 65 150
141 135 141 -7 0 -12 8 -12 19 0 10 -6 24 -14 30 -11 9 -30 -10 -100 -105z"/>
<path d="M7089 4008 c-68 -36 -91 -60 -72 -79 8 -8 25 -7 65 6 62 20 72 28 86
73 9 26 8 32 -3 32 -7 0 -41 -15 -76 -32z"/>
<path d="M1420 2888 c0 -7 17 -44 38 -83 27 -49 44 -70 58 -70 29 0 22 27 -26
100 -39 60 -70 83 -70 53z"/>
<path d="M1690 2815 c0 -49 3 -65 14 -65 18 0 26 22 26 69 0 35 -14 61 -32 61
-4 0 -8 -29 -8 -65z"/>
<path d="M1141 2762 c6 -15 160 -152 171 -152 28 0 -31 102 -75 128 -38 23
-101 39 -96 24z"/>
<path d="M1843 2678 c-55 -84 -63 -108 -39 -108 17 0 87 80 113 127 14 26 15
34 4 47 -8 9 -16 16 -20 16 -3 0 -30 -37 -58 -82z"/>
<path d="M1540 2666 c0 -15 18 -31 26 -23 7 7 -7 37 -17 37 -5 0 -9 -6 -9 -14z"/>
<path d="M1495 2547 c-97 -33 -167 -96 -212 -192 -70 -152 1 -388 128 -426 84
-26 179 41 179 126 0 44 -14 67 -78 134 -43 45 -50 68 -32 101 12 23 59 39 86
30 32 -12 82 -76 94 -122 18 -65 4 -120 -66 -253 -76 -146 -98 -224 -91 -314
6 -81 21 -94 94 -89 66 6 123 45 123 87 0 56 31 130 99 235 94 145 106 182
106 331 0 109 -2 125 -26 175 -55 116 -149 177 -285 185 -51 3 -93 0 -119 -8z"/>
<path d="M1980 2510 c-11 -11 -29 -20 -40 -20 -24 0 -27 -25 -4 -38 38 -21
124 21 124 60 0 25 -54 24 -80 -2z"/>
<path d="M970 2442 c0 -6 7 -17 15 -26 15 -15 157 -96 169 -96 3 0 6 8 6 19 0
24 -109 101 -155 108 -22 3 -35 2 -35 -5z"/>
<path d="M2000 2371 c-38 -10 -31 -35 10 -39 38 -3 77 18 66 36 -8 13 -37 14
-76 3z"/>
<path d="M1010 2173 c0 -20 49 -55 71 -51 29 4 36 24 12 36 -28 15 -83 25 -83
15z"/>
<path d="M1563 1380 c-89 -54 -81 -177 13 -216 96 -40 184 13 184 111 0 101
-109 159 -197 105z"/>
</g>
</svg>
